# xmcd
#
# Track frame offsets: 
#        225
#        13410
#        47822
#        65997
#        82497
#        97695
#        117452
#        142115
#
# Disc length: 2248 seconds
#
# Revision: 1
# Processed by: cddbd v1.5.2PL0 Copyright (c) Steve Scherf et al.
# Submitted via: ExactAudioCopyFreeDBPlugin 1.0
#
DISCID=7c08c508
DTITLE=Norman Blake, Tut Taylor, Sam Bush, Butch Robbins, Vassar Cleme
DTITLE=nts, David Holland, Jethro Burns - Norman Blake, Tut Taylor, Sa
DTITLE=m Bush, Butch Robbins, Vassar Clements, David Holland, Jethro B
DTITLE=urns
DYEAR=1974
DGENRE=Bluegrass
TTITLE0=Sweet Georgia Brown
TTITLE1=Saurkraut 'n Solar Energy
TTITLE2=The Old Brown Case
TTITLE3='A' Train
TTITLE4=Going Home
TTITLE5=McKinley's Blues
TTITLE6=Oconee
TTITLE7=Vassar and Dave
EXTD=
EXTT0=
EXTT1=
EXTT2=
EXTT3=
EXTT4=
EXTT5=
EXTT6=
EXTT7=
PLAYORDER=
